<svg width="24" height="24" viewBox="0 0 24 24" fill="none" xmlns="http://www.w3.org/2000/svg">
<path d="M16.8486 5.61816C18.4387 5.61816 20.1235 6.511 21.3223 8.05176C17.392 10.273 18.0287 16.0603 22 17.6084C21.454 18.8558 21.1916 19.4137 20.4883 20.5186C19.5071 22.0609 18.1232 23.9808 16.4072 23.9951C14.8841 24.0121 14.4907 22.9727 12.4228 22.9854C10.3553 22.9967 9.92418 24.0155 8.39843 24C6.68373 23.9845 5.37281 22.2514 4.39159 20.709C1.6465 16.3995 1.35724 11.3406 3.0498 8.64941C4.25408 6.7387 6.15394 5.62112 7.93847 5.62109C9.75449 5.62109 10.8974 6.64844 12.4014 6.64844C13.8601 6.64838 14.7482 5.61826 16.8486 5.61816ZM16.3887 0C16.598 1.45774 16.0195 2.88608 15.2559 3.89648C14.4388 4.98017 13.0303 5.81816 11.666 5.77441C11.417 4.3789 12.0552 2.94122 12.831 1.97461C13.6822 0.907884 15.1407 0.08906 16.3887 0Z" fill="black"/>
</svg>
