<svg width="45" height="45" viewBox="0 0 45 45" fill="none" xmlns="http://www.w3.org/2000/svg">
<g clip-path="url(#clip0_54_30)">
<path fill-rule="evenodd" clip-rule="evenodd" d="M45 22.5002C45 34.9264 34.9264 45 22.4998 45C10.0736 45 0 34.9264 0 22.5002C0 10.0736 10.0736 0 22.4998 0C20.8488 0 19.2027 0.181901 17.5916 0.54212L18.6221 5.15193C10.6713 6.92122 4.7272 14.0163 4.7272 22.5002C4.7272 32.3157 12.6843 40.2728 22.4998 40.2728C32.3157 40.2728 40.2728 32.3157 40.2728 22.5002H45ZM22.4998 0C34.9264 0 45 10.0736 45 22.5002C45 20.8492 44.8181 19.2031 44.4579 17.592L39.8485 18.622C38.0792 10.6717 30.9837 4.7272 22.4998 4.7272V0ZM22.4998 35.8023C27.9743 35.8023 32.6768 32.4954 34.7176 27.7695L30.3847 25.8806C29.0729 28.9367 26.0361 31.0769 22.4998 31.0769C19.0006 31.0769 15.9908 28.9815 14.657 25.977L10.324 27.8659C12.3868 32.5397 17.0624 35.8023 22.4998 35.8023Z" fill="black"/>
</g>
<defs>
<clipPath id="clip0_54_30">
<rect width="45" height="45" fill="white"/>
</clipPath>
</defs>
</svg>
