<svg width="336" height="47" viewBox="0 0 336 47" fill="none" xmlns="http://www.w3.org/2000/svg">
<path d="M0 35.76V0.480001H5.136V31.344H19.2V35.76H0ZM37.1813 36.144C36.2213 36.144 35.2613 36.064 34.3013 35.904C33.3733 35.744 32.4773 35.472 31.6133 35.088C30.7813 34.672 30.0133 34.128 29.3093 33.456C28.6053 32.784 28.0293 32.032 27.5813 31.2C27.1333 30.368 26.8133 29.488 26.6213 28.56C26.4613 27.6 26.3813 26.64 26.3813 25.68V20.88C26.3813 19.92 26.4613 18.976 26.6213 18.048C26.8133 17.088 27.1333 16.192 27.5813 15.36C28.0293 14.528 28.6053 13.776 29.3093 13.104C30.0133 12.432 30.7973 11.904 31.6613 11.52C32.5253 11.104 33.4213 10.8 34.3493 10.608C35.2773 10.384 36.2213 10.272 37.1813 10.272C38.1413 10.272 39.0853 10.384 40.0133 10.608C40.9413 10.8 41.8373 11.104 42.7013 11.52C43.5653 11.904 44.3493 12.432 45.0533 13.104C45.7573 13.776 46.3333 14.528 46.7812 15.36C47.2292 16.192 47.5333 17.088 47.6933 18.048C47.8853 18.976 47.9813 19.92 47.9813 20.88V25.68C47.9813 26.64 47.8853 27.6 47.6933 28.56C47.5333 29.488 47.2292 30.368 46.7812 31.2C46.3333 32.032 45.7573 32.784 45.0533 33.456C44.3493 34.128 43.5653 34.672 42.7013 35.088C41.8693 35.472 40.9733 35.744 40.0133 35.904C39.0853 36.064 38.1413 36.144 37.1813 36.144ZM37.1813 31.728C37.6933 31.728 38.2053 31.68 38.7173 31.584C39.2613 31.456 39.7573 31.264 40.2053 31.008C40.6533 30.752 41.0533 30.432 41.4053 30.048C41.7573 29.664 42.0453 29.232 42.2693 28.752C42.4933 28.272 42.6373 27.776 42.7013 27.264C42.7973 26.72 42.8453 26.192 42.8453 25.68V20.88C42.8453 20.368 42.7973 19.856 42.7013 19.344C42.6373 18.8 42.4933 18.288 42.2693 17.808C42.0453 17.328 41.7573 16.896 41.4053 16.512C41.0533 16.096 40.6373 15.776 40.1573 15.552C39.7093 15.296 39.2133 15.12 38.6693 15.024C38.1573 14.896 37.6293 14.832 37.0853 14.832C36.5733 14.832 36.0613 14.896 35.5493 15.024C35.0373 15.12 34.5573 15.296 34.1093 15.552C33.6613 15.808 33.2613 16.144 32.9093 16.56C32.5573 16.944 32.2693 17.376 32.0453 17.856C31.8533 18.336 31.7093 18.832 31.6133 19.344C31.5493 19.856 31.5173 20.368 31.5173 20.88V25.68C31.5173 26.192 31.5493 26.72 31.6133 27.264C31.7093 27.776 31.8693 28.272 32.0933 28.752C32.3173 29.232 32.6053 29.664 32.9573 30.048C33.3093 30.432 33.7093 30.752 34.1573 31.008C34.6053 31.264 35.0853 31.456 35.5973 31.584C36.1413 31.68 36.6693 31.728 37.1813 31.728ZM65.7705 46.464C64.9705 46.464 64.1545 46.416 63.3225 46.32C62.5225 46.224 61.7385 46.032 60.9705 45.744C60.2345 45.456 59.5305 45.072 58.8585 44.592C58.1865 44.144 57.5945 43.6 57.0825 42.96C56.6025 42.32 56.2185 41.616 55.9305 40.848C55.6425 40.08 55.4825 39.28 55.4505 38.448H60.5865C60.6185 39.056 60.7945 39.6 61.1145 40.08C61.4665 40.592 61.8985 40.992 62.4105 41.28C62.9225 41.568 63.4665 41.76 64.0425 41.856C64.6185 41.984 65.1945 42.048 65.7705 42.048C66.5385 42.048 67.2905 41.904 68.0265 41.616C68.7945 41.36 69.4185 40.928 69.8985 40.32C70.4105 39.744 70.7625 39.072 70.9545 38.304C71.1465 37.536 71.2425 36.768 71.2425 36V31.488C70.9225 32.192 70.5065 32.848 69.9945 33.456C69.5145 34.064 68.9545 34.576 68.3145 34.992C67.6745 35.408 66.9705 35.696 66.2025 35.856C65.4345 36.048 64.6665 36.144 63.8985 36.144C63.0345 36.144 62.1705 36.032 61.3065 35.808C60.4745 35.616 59.7065 35.28 59.0025 34.8C58.2985 34.32 57.6905 33.728 57.1785 33.024C56.6665 32.288 56.2505 31.52 55.9305 30.72C55.6425 29.92 55.4345 29.104 55.3065 28.272C55.2105 27.408 55.1625 26.544 55.1625 25.68V20.88C55.1625 20.016 55.2105 19.168 55.3065 18.336C55.4345 17.472 55.6425 16.64 55.9305 15.84C56.2505 15.04 56.6665 14.288 57.1785 13.584C57.6905 12.848 58.2985 12.24 59.0025 11.76C59.7065 11.28 60.4745 10.944 61.3065 10.752C62.1705 10.528 63.0345 10.416 63.8985 10.416C64.6665 10.416 65.4345 10.512 66.2025 10.704C66.9705 10.864 67.6745 11.152 68.3145 11.568C68.9545 11.984 69.5145 12.496 69.9945 13.104C70.5065 13.712 70.9225 14.368 71.2425 15.072V10.8H76.3785V36C76.3785 36.928 76.2825 37.856 76.0905 38.784C75.9305 39.744 75.6425 40.64 75.2265 41.472C74.8105 42.304 74.2505 43.056 73.5465 43.728C72.8745 44.4 72.1065 44.944 71.2425 45.36C70.4105 45.776 69.5305 46.064 68.6025 46.224C67.6745 46.384 66.7305 46.464 65.7705 46.464ZM65.9145 31.728C66.4265 31.728 66.9385 31.68 67.4505 31.584C67.9625 31.456 68.4265 31.264 68.8425 31.008C69.2905 30.72 69.6745 30.384 69.9945 30C70.3145 29.584 70.5705 29.136 70.7625 28.656C70.9545 28.176 71.0825 27.696 71.1465 27.216C71.2105 26.704 71.2425 26.192 71.2425 25.68V20.88C71.2425 20.368 71.2105 19.872 71.1465 19.392C71.0825 18.88 70.9545 18.384 70.7625 17.904C70.5705 17.424 70.3145 16.992 69.9945 16.608C69.6745 16.192 69.2905 15.856 68.8425 15.6C68.4265 15.312 67.9625 15.12 67.4505 15.024C66.9385 14.896 66.4265 14.832 65.9145 14.832C65.4025 14.832 64.8905 14.896 64.3785 15.024C63.8665 15.12 63.3705 15.296 62.8905 15.552C62.4425 15.808 62.0425 16.144 61.6905 16.56C61.3385 16.944 61.0505 17.376 60.8265 17.856C60.6345 18.304 60.4905 18.8 60.3945 19.344C60.3305 19.856 60.2985 20.368 60.2985 20.88V25.68C60.2985 26.192 60.3305 26.72 60.3945 27.264C60.4905 27.776 60.6345 28.272 60.8265 28.752C61.0505 29.2 61.3385 29.632 61.6905 30.048C62.0425 30.432 62.4425 30.752 62.8905 31.008C63.3705 31.264 63.8665 31.456 64.3785 31.584C64.8905 31.68 65.4025 31.728 65.9145 31.728ZM85.0958 35.76V31.344H92.5838V15.216H85.8638V10.8H97.6718V31.344H104.392V35.76H85.0958ZM94.7438 7.2C94.2638 7.2 93.7838 7.136 93.3038 7.008C92.8238 6.848 92.4078 6.608 92.0558 6.288C91.7358 5.936 91.4958 5.52 91.3358 5.04C91.2078 4.56 91.1438 4.08 91.1438 3.6C91.1438 3.12 91.2078 2.64 91.3358 2.16C91.4958 1.68 91.7358 1.28 92.0558 0.960001C92.4078 0.608 92.8238 0.368 93.3038 0.240002C93.7838 0.0799999 94.2638 -9.53674e-07 94.7438 -9.53674e-07C95.2238 -9.53674e-07 95.7038 0.0799999 96.1838 0.240002C96.6638 0.368 97.0638 0.608 97.3838 0.960001C97.7358 1.28 97.9758 1.68 98.1038 2.16C98.2638 2.64 98.3438 3.12 98.3438 3.6C98.3438 4.08 98.2638 4.56 98.1038 5.04C97.9758 5.52 97.7358 5.936 97.3838 6.288C97.0638 6.608 96.6638 6.848 96.1838 7.008C95.7038 7.136 95.2238 7.2 94.7438 7.2ZM113.109 35.76V10.8H118.245V15.072C118.565 14.368 118.965 13.712 119.445 13.104C119.925 12.496 120.485 11.984 121.125 11.568C121.797 11.152 122.517 10.864 123.285 10.704C124.053 10.512 124.821 10.416 125.589 10.416C126.421 10.416 127.253 10.528 128.085 10.752C128.917 10.976 129.669 11.344 130.341 11.856C131.013 12.336 131.589 12.928 132.069 13.632C132.549 14.336 132.933 15.088 133.221 15.888C133.509 16.688 133.701 17.52 133.797 18.384C133.893 19.216 133.941 20.048 133.941 20.88V35.76H128.805V20.88C128.805 20.112 128.709 19.36 128.517 18.624C128.357 17.856 128.037 17.184 127.557 16.608C127.077 16 126.469 15.552 125.733 15.264C125.029 14.976 124.293 14.832 123.525 14.832C122.757 14.832 122.005 14.976 121.269 15.264C120.565 15.552 119.973 16 119.493 16.608C119.013 17.184 118.677 17.856 118.485 18.624C118.325 19.36 118.245 20.112 118.245 20.88V35.76H113.109ZM142.274 35.76V0.480001H162.722V4.896H147.41V15.216H159.602V19.632H147.41V31.344H162.722V35.76H142.274ZM170.672 35.76V34.512C170.672 33.776 170.784 33.072 171.008 32.4C171.264 31.696 171.568 31.024 171.92 30.384C172.272 29.744 172.656 29.136 173.072 28.56C173.52 27.984 174 27.424 174.512 26.88L177.824 23.28L174.512 19.68C174 19.136 173.52 18.576 173.072 18C172.656 17.424 172.272 16.816 171.92 16.176C171.568 15.536 171.264 14.88 171.008 14.208C170.784 13.504 170.672 12.784 170.672 12.048V10.8H175.808V12.048C175.808 12.496 175.888 12.928 176.048 13.344C176.208 13.76 176.4 14.16 176.624 14.544C176.848 14.928 177.104 15.296 177.392 15.648C177.68 16 177.968 16.336 178.256 16.656L181.088 19.728L183.92 16.656C184.208 16.336 184.496 16 184.784 15.648C185.072 15.296 185.328 14.928 185.552 14.544C185.776 14.16 185.968 13.76 186.128 13.344C186.288 12.928 186.368 12.496 186.368 12.048V10.8H191.504V12.048C191.504 12.784 191.376 13.504 191.12 14.208C190.896 14.88 190.608 15.536 190.256 16.176C189.904 16.816 189.504 17.424 189.056 18C188.64 18.576 188.176 19.136 187.664 19.68L184.352 23.28L187.664 26.88C188.176 27.424 188.64 27.984 189.056 28.56C189.504 29.136 189.904 29.744 190.256 30.384C190.608 31.024 190.896 31.696 191.12 32.4C191.376 33.072 191.504 33.776 191.504 34.512V35.76H186.368V34.512C186.368 34.064 186.288 33.632 186.128 33.216C185.968 32.8 185.776 32.4 185.552 32.016C185.328 31.632 185.072 31.264 184.784 30.912C184.496 30.56 184.208 30.224 183.92 29.904L181.088 26.832L178.256 29.904C177.968 30.224 177.68 30.56 177.392 30.912C177.104 31.264 176.848 31.632 176.624 32.016C176.4 32.4 176.208 32.8 176.048 33.216C175.888 33.632 175.808 34.064 175.808 34.512V35.76H170.672ZM207.133 36.144C206.109 36.144 205.085 36.016 204.061 35.76C203.069 35.504 202.173 35.056 201.373 34.416C200.605 33.744 200.029 32.928 199.645 31.968C199.261 30.976 199.069 29.968 199.069 28.944C199.069 28.016 199.213 27.12 199.501 26.256C199.789 25.36 200.237 24.592 200.845 23.952C201.453 23.28 202.157 22.736 202.957 22.32C203.789 21.872 204.637 21.52 205.501 21.264C206.397 21.008 207.293 20.848 208.189 20.784C209.085 20.688 209.997 20.64 210.925 20.64H215.149V18.72C215.149 18.112 214.989 17.536 214.669 16.992C214.349 16.416 213.917 15.968 213.373 15.648C212.861 15.328 212.285 15.12 211.645 15.024C211.037 14.896 210.429 14.832 209.821 14.832C209.213 14.832 208.605 14.896 207.997 15.024C207.389 15.12 206.813 15.312 206.269 15.6C205.757 15.888 205.325 16.304 204.973 16.848C204.653 17.36 204.493 17.92 204.493 18.528H199.357C199.357 18.496 199.357 18.48 199.357 18.48C199.357 17.648 199.485 16.832 199.741 16.032C200.029 15.232 200.413 14.512 200.893 13.872C201.405 13.232 202.013 12.688 202.717 12.24C203.421 11.76 204.157 11.392 204.925 11.136C205.693 10.848 206.493 10.656 207.325 10.56C208.157 10.464 208.989 10.416 209.821 10.416C210.653 10.416 211.485 10.464 212.317 10.56C213.149 10.656 213.965 10.848 214.765 11.136C215.565 11.392 216.317 11.76 217.021 12.24C217.757 12.72 218.365 13.296 218.845 13.968C219.357 14.64 219.725 15.392 219.949 16.224C220.173 17.056 220.285 17.888 220.285 18.72V35.76H215.149V31.728C214.797 32.464 214.333 33.12 213.757 33.696C213.181 34.272 212.525 34.752 211.789 35.136C211.085 35.488 210.333 35.744 209.533 35.904C208.733 36.064 207.933 36.144 207.133 36.144ZM209.149 31.728C209.885 31.728 210.621 31.648 211.357 31.488C212.093 31.296 212.749 30.992 213.325 30.576C213.933 30.128 214.381 29.552 214.669 28.848C214.989 28.144 215.149 27.424 215.149 26.688V25.056H210.925C210.445 25.056 209.965 25.072 209.485 25.104C209.037 25.136 208.589 25.2 208.141 25.296C207.693 25.36 207.245 25.456 206.797 25.584C206.349 25.712 205.933 25.904 205.549 26.16C205.165 26.384 204.845 26.704 204.589 27.12C204.333 27.504 204.205 27.936 204.205 28.416C204.205 28.96 204.365 29.472 204.685 29.952C205.005 30.432 205.405 30.8 205.885 31.056C206.397 31.312 206.925 31.488 207.469 31.584C208.013 31.68 208.573 31.728 209.149 31.728ZM226.842 35.76V10.8H231.978V12.96C232.17 12.576 232.394 12.224 232.65 11.904C232.938 11.584 233.258 11.312 233.61 11.088C233.994 10.832 234.394 10.656 234.81 10.56C235.226 10.464 235.658 10.416 236.106 10.416C236.618 10.416 237.13 10.496 237.642 10.656C238.186 10.816 238.65 11.072 239.034 11.424C239.45 11.744 239.802 12.144 240.09 12.624C240.378 13.104 240.602 13.6 240.762 14.112C240.922 13.6 241.13 13.12 241.386 12.672C241.674 12.192 242.01 11.776 242.394 11.424C242.81 11.072 243.274 10.816 243.786 10.656C244.298 10.496 244.81 10.416 245.322 10.416C245.866 10.416 246.41 10.512 246.954 10.704C247.498 10.864 247.978 11.12 248.394 11.472C248.81 11.824 249.146 12.24 249.402 12.72C249.69 13.2 249.914 13.712 250.074 14.256C250.234 14.768 250.33 15.296 250.362 15.84C250.426 16.384 250.458 16.944 250.458 17.52V35.76H245.322V17.52C245.322 17.2 245.29 16.88 245.226 16.56C245.162 16.24 245.05 15.952 244.89 15.696C244.73 15.408 244.49 15.2 244.17 15.072C243.882 14.912 243.578 14.832 243.258 14.832C242.938 14.832 242.634 14.912 242.346 15.072C242.058 15.2 241.818 15.408 241.626 15.696C241.466 15.952 241.354 16.24 241.29 16.56C241.226 16.88 241.194 17.2 241.194 17.52V35.76H236.106V17.52C236.106 17.2 236.074 16.88 236.01 16.56C235.946 16.24 235.818 15.952 235.626 15.696C235.466 15.408 235.242 15.2 234.954 15.072C234.666 14.912 234.362 14.832 234.042 14.832C233.722 14.832 233.402 14.912 233.082 15.072C232.794 15.2 232.57 15.408 232.41 15.696C232.25 15.952 232.138 16.24 232.074 16.56C232.01 16.88 231.978 17.2 231.978 17.52V35.76H226.842ZM257.015 46.08V10.8H262.151V15.072C262.471 14.368 262.871 13.712 263.351 13.104C263.863 12.496 264.439 11.984 265.079 11.568C265.719 11.152 266.423 10.864 267.191 10.704C267.959 10.512 268.727 10.416 269.495 10.416C270.359 10.416 271.207 10.528 272.039 10.752C272.903 10.944 273.687 11.28 274.391 11.76C275.095 12.24 275.703 12.848 276.215 13.584C276.727 14.288 277.127 15.04 277.415 15.84C277.735 16.64 277.943 17.472 278.039 18.336C278.167 19.168 278.231 20.016 278.231 20.88V25.68C278.231 26.544 278.167 27.408 278.039 28.272C277.943 29.104 277.735 29.92 277.415 30.72C277.127 31.52 276.727 32.288 276.215 33.024C275.703 33.728 275.095 34.32 274.391 34.8C273.687 35.28 272.903 35.616 272.039 35.808C271.207 36.032 270.359 36.144 269.495 36.144C268.727 36.144 267.959 36.048 267.191 35.856C266.423 35.696 265.719 35.408 265.079 34.992C264.439 34.576 263.863 34.064 263.351 33.456C262.871 32.848 262.471 32.192 262.151 31.488V46.08H257.015ZM267.479 31.728C267.991 31.728 268.503 31.68 269.015 31.584C269.527 31.456 270.007 31.264 270.455 31.008C270.935 30.752 271.351 30.432 271.703 30.048C272.055 29.632 272.327 29.2 272.519 28.752C272.743 28.272 272.887 27.776 272.951 27.264C273.047 26.72 273.095 26.192 273.095 25.68V20.88C273.095 20.368 273.047 19.856 272.951 19.344C272.887 18.8 272.743 18.304 272.519 17.856C272.327 17.376 272.055 16.944 271.703 16.56C271.351 16.144 270.935 15.808 270.455 15.552C270.007 15.296 269.527 15.12 269.015 15.024C268.503 14.896 267.991 14.832 267.479 14.832C266.967 14.832 266.455 14.896 265.943 15.024C265.431 15.12 264.951 15.312 264.503 15.6C264.087 15.856 263.719 16.192 263.399 16.608C263.079 16.992 262.823 17.424 262.631 17.904C262.439 18.384 262.311 18.88 262.247 19.392C262.183 19.872 262.151 20.368 262.151 20.88V25.68C262.151 26.192 262.183 26.704 262.247 27.216C262.311 27.696 262.439 28.176 262.631 28.656C262.823 29.136 263.079 29.584 263.399 30C263.719 30.384 264.087 30.72 264.503 31.008C264.951 31.264 265.431 31.456 265.943 31.584C266.455 31.68 266.967 31.728 267.479 31.728ZM302.789 36.144C302.021 36.144 301.237 36.08 300.437 35.952C299.669 35.856 298.917 35.664 298.181 35.376C297.477 35.056 296.821 34.64 296.213 34.128C295.605 33.616 295.109 33.024 294.725 32.352C294.341 31.68 294.069 30.96 293.909 30.192C293.749 29.392 293.669 28.608 293.669 27.84V4.896H286.565V0.480001H298.757V27.84C298.757 28.384 298.837 28.912 298.997 29.424C299.189 29.936 299.477 30.368 299.861 30.72C300.245 31.072 300.693 31.328 301.205 31.488C301.717 31.648 302.245 31.728 302.789 31.728C303.621 31.728 304.453 31.664 305.285 31.536C306.117 31.408 306.917 31.216 307.685 30.96V35.376C306.917 35.632 306.117 35.824 305.285 35.952C304.453 36.08 303.621 36.144 302.789 36.144ZM325.138 36.144C324.178 36.144 323.218 36.064 322.258 35.904C321.298 35.744 320.386 35.472 319.522 35.088C318.658 34.672 317.874 34.144 317.17 33.504C316.466 32.832 315.874 32.08 315.394 31.248C314.946 30.384 314.626 29.488 314.434 28.56C314.274 27.6 314.194 26.64 314.194 25.68V20.88C314.194 19.92 314.274 18.976 314.434 18.048C314.626 17.088 314.946 16.192 315.394 15.36C315.842 14.528 316.418 13.776 317.122 13.104C317.826 12.432 318.594 11.904 319.426 11.52C320.29 11.104 321.186 10.816 322.114 10.656C323.074 10.496 324.034 10.416 324.994 10.416C325.954 10.416 326.898 10.496 327.826 10.656C328.786 10.816 329.682 11.104 330.514 11.52C331.378 11.904 332.162 12.432 332.866 13.104C333.57 13.776 334.146 14.528 334.594 15.36C335.042 16.192 335.346 17.088 335.506 18.048C335.698 18.976 335.794 19.92 335.794 20.88V25.488H319.33V25.68C319.33 26.224 319.362 26.752 319.426 27.264C319.522 27.776 319.682 28.272 319.906 28.752C320.13 29.232 320.418 29.68 320.77 30.096C321.154 30.48 321.57 30.8 322.018 31.056C322.498 31.312 322.994 31.488 323.506 31.584C324.05 31.68 324.594 31.728 325.138 31.728C325.714 31.728 326.29 31.68 326.866 31.584C327.442 31.488 327.986 31.328 328.498 31.104C329.042 30.848 329.506 30.496 329.89 30.048C330.274 29.568 330.498 29.024 330.562 28.416H335.698C335.634 29.248 335.442 30.048 335.122 30.816C334.834 31.552 334.434 32.24 333.922 32.88C333.41 33.488 332.802 34.016 332.098 34.464C331.394 34.88 330.658 35.216 329.89 35.472C329.122 35.728 328.338 35.904 327.538 36C326.738 36.096 325.938 36.144 325.138 36.144ZM330.658 21.072V20.88C330.658 20.368 330.61 19.856 330.514 19.344C330.45 18.8 330.306 18.288 330.082 17.808C329.858 17.328 329.57 16.896 329.218 16.512C328.866 16.128 328.466 15.808 328.018 15.552C327.57 15.296 327.074 15.12 326.53 15.024C326.018 14.896 325.506 14.832 324.994 14.832C324.482 14.832 323.954 14.896 323.41 15.024C322.898 15.12 322.418 15.296 321.97 15.552C321.522 15.808 321.122 16.128 320.77 16.512C320.418 16.896 320.13 17.328 319.906 17.808C319.682 18.288 319.522 18.8 319.426 19.344C319.362 19.856 319.33 20.368 319.33 20.88V21.072H330.658Z" fill="black"/>
</svg>
